<mxfile host="app.diagrams.net" modified="2021-12-22T20:42:21.077Z" agent="5.0 (Windows NT 10.0; Win64; x64) AppleWebKit/537.36 (KHTML, like Gecko) Chrome/96.0.4664.110 Safari/537.36 Edg/96.0.1054.62" etag="iMLewg_axa1OegS5RTYV" version="16.0.3" type="github">
  <diagram id="RcLsMqSNe8nh3_PVpQBb" name="Page-1">
    <mxGraphModel dx="769" dy="457" grid="1" gridSize="10" guides="1" tooltips="1" connect="1" arrows="1" fold="1" page="1" pageScale="1" pageWidth="850" pageHeight="1100" math="0" shadow="0">
      <root>
        <mxCell id="0" />
        <mxCell id="1" parent="0" />
        <mxCell id="UwSYvGgoTBaX2EDQLk_I-1" value="Wodify Gym" style="ellipse;whiteSpace=wrap;html=1;" vertex="1" parent="1">
          <mxGeometry x="50" y="70" width="120" height="80" as="geometry" />
        </mxCell>
        <mxCell id="UwSYvGgoTBaX2EDQLk_I-2" value="" style="endArrow=classic;html=1;rounded=0;exitX=1;exitY=0.5;exitDx=0;exitDy=0;" edge="1" parent="1" source="UwSYvGgoTBaX2EDQLk_I-1">
          <mxGeometry width="50" height="50" relative="1" as="geometry">
            <mxPoint x="370" y="260" as="sourcePoint" />
            <mxPoint x="200" y="110" as="targetPoint" />
          </mxGeometry>
        </mxCell>
        <mxCell id="UwSYvGgoTBaX2EDQLk_I-3" value="Add gym information&lt;br&gt;(gym name, location, contact)" style="rounded=0;whiteSpace=wrap;html=1;" vertex="1" parent="1">
          <mxGeometry x="440" y="30" width="180" height="160" as="geometry" />
        </mxCell>
        <mxCell id="UwSYvGgoTBaX2EDQLk_I-4" value="" style="endArrow=classic;html=1;rounded=0;exitX=1;exitY=0.5;exitDx=0;exitDy=0;entryX=0;entryY=0.5;entryDx=0;entryDy=0;" edge="1" parent="1" source="UwSYvGgoTBaX2EDQLk_I-3" target="UwSYvGgoTBaX2EDQLk_I-12">
          <mxGeometry width="50" height="50" relative="1" as="geometry">
            <mxPoint x="580" y="170" as="sourcePoint" />
            <mxPoint x="670" y="110" as="targetPoint" />
          </mxGeometry>
        </mxCell>
        <mxCell id="UwSYvGgoTBaX2EDQLk_I-7" value="" style="endArrow=classic;html=1;rounded=0;exitX=1;exitY=0.5;exitDx=0;exitDy=0;" edge="1" parent="1" source="UwSYvGgoTBaX2EDQLk_I-12">
          <mxGeometry width="50" height="50" relative="1" as="geometry">
            <mxPoint x="820" y="109.5" as="sourcePoint" />
            <mxPoint x="850" y="110" as="targetPoint" />
          </mxGeometry>
        </mxCell>
        <mxCell id="UwSYvGgoTBaX2EDQLk_I-8" value="Sign up" style="rounded=0;whiteSpace=wrap;html=1;" vertex="1" parent="1">
          <mxGeometry x="200" y="80" width="120" height="60" as="geometry" />
        </mxCell>
        <mxCell id="UwSYvGgoTBaX2EDQLk_I-9" value="" style="endArrow=classic;html=1;rounded=0;entryX=0;entryY=0.5;entryDx=0;entryDy=0;exitX=1;exitY=0.5;exitDx=0;exitDy=0;" edge="1" parent="1" source="UwSYvGgoTBaX2EDQLk_I-8" target="UwSYvGgoTBaX2EDQLk_I-3">
          <mxGeometry width="50" height="50" relative="1" as="geometry">
            <mxPoint x="260" y="170" as="sourcePoint" />
            <mxPoint x="310" y="120" as="targetPoint" />
          </mxGeometry>
        </mxCell>
        <mxCell id="UwSYvGgoTBaX2EDQLk_I-12" value="Members" style="shape=process;whiteSpace=wrap;html=1;backgroundOutline=1;" vertex="1" parent="1">
          <mxGeometry x="670" y="80" width="120" height="60" as="geometry" />
        </mxCell>
        <mxCell id="UwSYvGgoTBaX2EDQLk_I-13" value="Members&lt;br&gt;Log in" style="ellipse;whiteSpace=wrap;html=1;" vertex="1" parent="1">
          <mxGeometry x="40" y="340" width="120" height="80" as="geometry" />
        </mxCell>
        <mxCell id="UwSYvGgoTBaX2EDQLk_I-14" value="" style="endArrow=classic;html=1;rounded=0;exitX=1;exitY=0.5;exitDx=0;exitDy=0;entryX=0;entryY=0.5;entryDx=0;entryDy=0;" edge="1" parent="1" source="UwSYvGgoTBaX2EDQLk_I-13" target="UwSYvGgoTBaX2EDQLk_I-15">
          <mxGeometry width="50" height="50" relative="1" as="geometry">
            <mxPoint x="240" y="320" as="sourcePoint" />
            <mxPoint x="250" y="380" as="targetPoint" />
          </mxGeometry>
        </mxCell>
        <mxCell id="UwSYvGgoTBaX2EDQLk_I-15" value="" style="rounded=0;whiteSpace=wrap;html=1;" vertex="1" parent="1">
          <mxGeometry x="230" y="350" width="120" height="60" as="geometry" />
        </mxCell>
      </root>
    </mxGraphModel>
  </diagram>
</mxfile>
